<svg width="21" height="20" viewBox="0 0 21 20" fill="none" xmlns="http://www.w3.org/2000/svg">
<path opacity="0.4" fill-rule="evenodd" clip-rule="evenodd" d="M15.9362 13.172C14.1092 13.172 12.6232 11.686 12.6232 9.86C12.6232 8.033 14.1092 6.546 15.9362 6.546H20.1462C19.2682 2.492 16.4752 0.960999 10.6662 0.960999C3.43023 0.960999 0.865234 3.327 0.865234 10C0.865234 16.674 3.43023 19.039 10.6662 19.039C16.6082 19.039 19.3962 17.439 20.2042 13.172H15.9362Z" fill="#6CBB2D"/>
<path fill-rule="evenodd" clip-rule="evenodd" d="M10.3168 6.64099H6.25684C5.84284 6.64099 5.50684 6.30499 5.50684 5.89099C5.50684 5.47699 5.84284 5.14099 6.25684 5.14099H10.3168C10.7308 5.14099 11.0668 5.47699 11.0668 5.89099C11.0668 6.30499 10.7308 6.64099 10.3168 6.64099Z" fill="#6CBB2D"/>
<path d="M20.3721 8.04596C20.4311 8.65496 20.4658 9.29806 20.4658 10.0001C20.4658 10.595 20.4385 11.144 20.3965 11.6719H15.9365C14.9377 11.6719 14.1233 10.8592 14.123 9.86041C14.123 8.86041 14.9375 8.04596 15.9365 8.04596H20.3721ZM16.0762 9.04987C15.6622 9.04987 15.3262 9.38587 15.3262 9.79987C15.3262 10.2139 15.6622 10.5499 16.0762 10.5499C16.4902 10.5499 16.8262 10.2139 16.8262 9.79987C16.8262 9.38587 16.4902 9.04987 16.0762 9.04987Z" fill="#6CBB2D"/>
</svg>
