<svg width="26" height="20" viewBox="0 0 26 20" fill="none" xmlns="http://www.w3.org/2000/svg">
<path fill-rule="evenodd" clip-rule="evenodd" d="M19.445 8.86855H19.465C21.595 8.86855 23.335 7.12855 23.335 5.00855C23.335 2.87855 21.595 1.13855 19.465 1.13855C19.045 1.13855 18.645 1.20855 18.265 1.32855C18.955 2.34855 19.355 3.57855 19.355 4.90855C19.365 6.25855 18.945 7.55855 18.155 8.63855C18.565 8.78855 18.995 8.86855 19.445 8.86855Z" fill="#6CBB2D"/>
<path fill-rule="evenodd" clip-rule="evenodd" d="M6.52504 8.86855H6.55504C7.00504 8.86855 7.43504 8.78855 7.84504 8.63855C7.08504 7.59855 6.63504 6.30855 6.63504 4.90855C6.63504 3.57855 7.03504 2.34855 7.72504 1.32855C7.34504 1.20855 6.94504 1.13855 6.52504 1.13855C4.39504 1.13855 2.66504 2.87855 2.66504 5.00855C2.66504 7.12855 4.39504 8.86855 6.52504 8.86855Z" fill="#6CBB2D"/>
<path fill-rule="evenodd" clip-rule="evenodd" d="M12.9956 9.77463H13.0286C14.3236 9.77063 15.5396 9.26163 16.4516 8.34263C17.3646 7.42363 17.8646 6.20463 17.8596 4.91163C17.8596 2.22863 15.6786 0.0466309 12.9956 0.0466309C10.3136 0.0466309 8.13263 2.22863 8.13263 4.91163C8.13263 7.59263 10.3136 9.77463 12.9956 9.77463Z" fill="#6CBB2D"/>
<g opacity="0.4">
<path fill-rule="evenodd" clip-rule="evenodd" d="M19.4752 10.3083C18.3352 10.3083 17.2652 10.5383 16.3652 10.9283C19.5152 11.8383 21.7452 14.0183 21.8052 16.5683C23.4452 16.3583 25.2152 15.7383 25.2152 14.0483C25.2152 12.0183 22.5852 10.3083 19.4752 10.3083Z" fill="#6CBB2D"/>
<path fill-rule="evenodd" clip-rule="evenodd" d="M9.62516 10.9183C8.72516 10.5383 7.65516 10.3083 6.52516 10.3083C3.41516 10.3083 0.785156 12.0183 0.785156 14.0483C0.785156 15.7383 2.54516 16.3484 4.18516 16.5683C4.23516 14.0183 6.46516 11.8383 9.62516 10.9183Z" fill="#6CBB2D"/>
<path fill-rule="evenodd" clip-rule="evenodd" d="M12.9948 11.9454C9.03377 11.9454 5.68677 14.1014 5.68677 16.6534C5.68677 19.9534 11.1868 19.9534 12.9948 19.9534C16.1328 19.9534 20.3048 19.6134 20.3048 16.6744C20.3048 14.1104 16.9568 11.9454 12.9948 11.9454Z" fill="#6CBB2D"/>
</g>
</svg>
