<svg width="20" height="20" viewBox="0 0 20 20" fill="none" xmlns="http://www.w3.org/2000/svg">
<path d="M11 7C11 6.44772 10.5523 6 10 6C9.44772 6 9 6.44772 9 7V9H7C6.44772 9 6 9.44772 6 10C6 10.5523 6.44772 11 7 11H9V13C9 13.5523 9.44772 14 10 14C10.5523 14 11 13.5523 11 13V11H13C13.5523 11 14 10.5523 14 10C14 9.44772 13.5523 9 13 9H11V7Z" fill="#69696C"/>
<path fill-rule="evenodd" clip-rule="evenodd" d="M10 0C4.47715 0 0 4.47715 0 10C0 15.5228 4.47715 20 10 20C15.5228 20 20 15.5228 20 10C20 4.47715 15.5228 0 10 0ZM2 10C2 5.58172 5.58172 2 10 2C14.4183 2 18 5.58172 18 10C18 14.4183 14.4183 18 10 18C5.58172 18 2 14.4183 2 10Z" fill="#69696C"/>
</svg>
