<svg width="21" height="22" viewBox="0 0 21 22" fill="none" xmlns="http://www.w3.org/2000/svg">
<path fill-rule="evenodd" clip-rule="evenodd" d="M8.07321 3.86255C8.07321 3.01355 8.66121 2.32355 9.38321 2.32355H11.7832C12.5052 2.32355 13.0932 3.01355 13.0932 3.86255V3.88655C12.3272 3.80955 11.4932 3.77155 10.5832 3.77155C9.67221 3.77155 8.83821 3.80955 8.07321 3.88655V3.86255ZM1.08921 9.78155C3.69821 11.3895 7.07821 12.2765 10.6032 12.2795C14.1212 12.2765 17.4922 11.3925 20.0992 9.79155C19.5712 6.52855 17.9062 4.79255 14.5932 4.11755V3.86255C14.5932 2.18655 13.3322 0.823547 11.7832 0.823547H9.38321C7.83421 0.823547 6.57321 2.18655 6.57321 3.86255V4.11755C3.26521 4.79155 1.60121 6.52255 1.06921 9.77355C1.07621 9.77755 1.08321 9.77755 1.08921 9.78155Z" fill="#6CBB2D"/>
<path fill-rule="evenodd" clip-rule="evenodd" d="M11.333 13.8174V15.9804C11.333 16.3944 10.997 16.7304 10.583 16.7304C10.169 16.7304 9.83305 16.3944 9.83305 15.9804V13.8164C6.57205 13.7074 3.45405 12.8934 0.897047 11.4844C0.882047 11.8034 0.873047 12.1314 0.873047 12.4734C0.873047 18.8994 3.41405 21.1764 10.583 21.1764C17.752 21.1764 20.293 18.8994 20.293 12.4734C20.293 12.1394 20.285 11.8184 20.271 11.5074C17.71 12.9084 14.592 13.7144 11.333 13.8174Z" fill="#6CBB2D"/>
</svg>
