<svg width="24" height="21" viewBox="0 0 24 21" fill="none" xmlns="http://www.w3.org/2000/svg">
<path d="M11.8846 0.846243C11.674 0.876481 11.4803 0.978545 11.3363 1.13517L5.24954 7.30778H0.923077C0.369231 7.30778 0 7.67701 0 8.23086V10.077C0 10.6309 0.369231 11.0001 0.923077 11.0001H1.00985L3.51877 19.5967C3.61108 19.9659 3.98031 20.2309 4.44185 20.2309H19.6726C20.0418 20.2309 20.4111 19.965 20.5957 19.5958L23.0769 11.0001C23.6308 11.0001 24 10.6309 24 10.077V8.23086C24 7.67701 23.6308 7.30778 23.0769 7.30778H18.8363L12.6646 1.10563C12.5635 1.00507 12.4404 0.929324 12.3051 0.88432C12.1697 0.839317 12.0258 0.826283 11.8846 0.846243ZM12 3.0967L16.2406 7.30778H7.84615L12 3.0967ZM16.212 9.87486C16.3966 9.87486 16.5628 9.93855 16.7012 10.077L17.3658 10.7121C17.6428 10.989 17.6428 11.4727 17.3658 11.7496L11.8274 17.2881C11.5505 17.565 11.0658 17.565 10.788 17.2881L7.67354 14.1441C7.39662 13.8672 7.39662 13.4121 7.67354 13.1352L8.30769 12.4706C8.58462 12.1936 9.04062 12.1936 9.31754 12.4706L11.3658 14.5198L15.6923 10.077C15.8325 9.9443 16.019 9.87173 16.212 9.87486Z" fill="#6CBB2D"/>
</svg>
