<svg width="22" height="17" viewBox="0 0 22 17" fill="none" xmlns="http://www.w3.org/2000/svg">
<path d="M0 13.7C0 13.1334 0.146 12.6127 0.438 12.138C0.73 11.6634 1.11733 11.3007 1.6 11.05C2.63333 10.5334 3.68333 10.146 4.75 9.88803C5.81667 9.63002 6.9 9.50069 8 9.50003C9.1 9.49936 10.1833 9.62869 11.25 9.88803C12.3167 10.1474 13.3667 10.5347 14.4 11.05C14.8833 11.3 15.271 11.6627 15.563 12.138C15.855 12.6134 16.0007 13.134 16 13.7V14.5C16 15.05 15.8043 15.521 15.413 15.913C15.0217 16.305 14.5507 16.5007 14 16.5H2C1.45 16.5 0.979333 16.3044 0.588 15.913C0.196667 15.5217 0.000666667 15.0507 0 14.5V13.7ZM17.45 16.5C17.6333 16.2 17.771 15.8794 17.863 15.538C17.955 15.1967 18.0007 14.8507 18 14.5V13.5C18 12.7667 17.796 12.0624 17.388 11.387C16.98 10.7117 16.4007 10.1327 15.65 9.65003C16.5 9.75003 17.3 9.92103 18.05 10.163C18.8 10.405 19.5 10.7007 20.15 11.05C20.75 11.3834 21.2083 11.754 21.525 12.162C21.8417 12.57 22 13.016 22 13.5V14.5C22 15.05 21.8043 15.521 21.413 15.913C21.0217 16.305 20.5507 16.5007 20 16.5H17.45ZM8 8.50003C6.9 8.50003 5.95833 8.10836 5.175 7.32503C4.39167 6.54169 4 5.60003 4 4.50003C4 3.40003 4.39167 2.45836 5.175 1.67503C5.95833 0.891692 6.9 0.500026 8 0.500026C9.1 0.500026 10.0417 0.891692 10.825 1.67503C11.6083 2.45836 12 3.40003 12 4.50003C12 5.60003 11.6083 6.54169 10.825 7.32503C10.0417 8.10836 9.1 8.50003 8 8.50003ZM18 4.50003C18 5.60003 17.6083 6.54169 16.825 7.32503C16.0417 8.10836 15.1 8.50003 14 8.50003C13.8167 8.50003 13.5833 8.47936 13.3 8.43803C13.0167 8.39669 12.7833 8.35069 12.6 8.30003C13.05 7.76669 13.396 7.17503 13.638 6.52503C13.88 5.87503 14.0007 5.20003 14 4.50003C13.9993 3.80003 13.8787 3.12503 13.638 2.47503C13.3973 1.82503 13.0513 1.23336 12.6 0.700025C12.8333 0.616692 13.0667 0.562359 13.3 0.537026C13.5333 0.511692 13.7667 0.499359 14 0.500026C15.1 0.500026 16.0417 0.891692 16.825 1.67503C17.6083 2.45836 18 3.40003 18 4.50003Z" fill="#6CBB2D"/>
</svg>
