<svg width="22" height="22" viewBox="0 0 22 22" fill="none" xmlns="http://www.w3.org/2000/svg">
<path d="M11 0.75C8.97275 0.75 6.99101 1.35115 5.30541 2.47744C3.61981 3.60372 2.30604 5.20455 1.53024 7.07749C0.754441 8.95044 0.551457 11.0114 0.946956 12.9997C1.34245 14.988 2.31867 16.8144 3.75216 18.2478C5.18565 19.6813 7.01202 20.6576 9.00033 21.053C10.9886 21.4485 13.0496 21.2456 14.9225 20.4698C16.7955 19.694 18.3963 18.3802 19.5226 16.6946C20.6489 15.009 21.25 13.0273 21.25 11C21.2474 8.28234 20.1666 5.67675 18.2449 3.75508C16.3232 1.83341 13.7177 0.752647 11 0.75ZM11.75 16.75V17.54C11.75 17.7389 11.671 17.9297 11.5303 18.0703C11.3897 18.211 11.1989 18.29 11 18.29C10.8011 18.29 10.6103 18.211 10.4697 18.0703C10.329 17.9297 10.25 17.7389 10.25 17.54V16.75C9.59833 16.6526 8.98787 16.3716 8.49 15.94C8.13462 15.6421 7.842 15.2765 7.62913 14.8645C7.41625 14.4524 7.28738 14.0022 7.25 13.54C7.23735 13.3922 7.26878 13.2441 7.34032 13.1142C7.41186 12.9843 7.5203 12.8785 7.65194 12.8102C7.78357 12.7419 7.9325 12.7142 8.07989 12.7306C8.22727 12.7469 8.36651 12.8066 8.48 12.902C8.63309 13.0294 8.73005 13.2118 8.75 13.41C8.76913 13.6775 8.84184 13.9383 8.96381 14.1771C9.08578 14.4159 9.25453 14.6277 9.46 14.8C9.87323 15.1532 10.4073 15.3325 10.95 15.3C12.51 15.3 13.25 14.7 13.25 13.48C13.25 12.67 12.54 11.8 11 11.8C7.74 11.8 7.25 9.8 7.25 8.65C7.27666 7.93285 7.52311 7.24123 7.95599 6.66884C8.38886 6.09644 8.98722 5.67095 9.67 5.45C9.86 5.39133 10.0533 5.348 10.25 5.32V4.54C10.25 4.34109 10.329 4.15032 10.4697 4.00967C10.6103 3.86902 10.8011 3.79 11 3.79C11.1989 3.79 11.3897 3.86902 11.5303 4.00967C11.671 4.15032 11.75 4.34109 11.75 4.54V5.35C12.5351 5.48093 13.2549 5.86765 13.7974 6.44999C14.34 7.03232 14.6749 7.77764 14.75 8.57C14.7582 8.76129 14.693 8.94848 14.5676 9.09321C14.4423 9.23794 14.2663 9.32925 14.0758 9.34843C13.8853 9.36761 13.6947 9.3132 13.543 9.19636C13.3913 9.07952 13.2901 8.90909 13.26 8.72C13.2044 8.1773 12.9437 7.67631 12.531 7.31944C12.1184 6.96257 11.5851 6.77677 11.04 6.8H10.86C10.6164 6.79808 10.3739 6.83177 10.14 6.9C9.88413 6.98346 9.64774 7.1177 9.44498 7.29468C9.24222 7.47167 9.07727 7.68775 8.96 7.93C8.83975 8.16968 8.77159 8.4321 8.76 8.7C8.76 9.52 9.03 10.32 11.01 10.32C13.47 10.32 14.76 11.92 14.76 13.5C14.7733 13.9117 14.7047 14.322 14.5581 14.707C14.4116 15.092 14.19 15.4441 13.9062 15.7427C13.6224 16.0414 13.2822 16.2807 12.9052 16.4467C12.5281 16.6128 12.1219 16.7023 11.71 16.71L11.75 16.75Z" fill="#6CBB2D"/>
</svg>
