<svg width="24" height="24" viewBox="0 0 24 24" fill="none" xmlns="http://www.w3.org/2000/svg">
<path d="M2.99998 11.9999C3.00152 13.2869 3.27904 14.5585 3.81383 15.7291C4.34862 16.8997 5.12823 17.9419 6.10007 18.7856C7.07191 19.6292 8.21338 20.2546 9.44748 20.6196C10.6816 20.9846 11.9796 21.0807 13.254 20.9014C14.5284 20.7221 15.7495 20.2715 16.835 19.5801C17.9204 18.8888 18.845 17.9726 19.5463 16.8936C20.2476 15.8145 20.7093 14.5976 20.9003 13.3249C21.0913 12.0522 21.0071 10.7533 20.6535 9.51594C20.6038 9.37138 20.5841 9.21822 20.5955 9.06579C20.607 8.91337 20.6493 8.76486 20.72 8.62931C20.7906 8.49377 20.8881 8.37402 21.0065 8.27736C21.1249 8.1807 21.2618 8.10914 21.4087 8.06706C21.5557 8.02497 21.7096 8.01323 21.8613 8.03255C22.0129 8.05187 22.159 8.10185 22.2907 8.17944C22.4224 8.25703 22.5369 8.36061 22.6273 8.48387C22.7177 8.60714 22.7821 8.74751 22.8165 8.89644C23.5013 11.2927 23.3712 13.8486 22.4467 16.1629C21.5221 18.4773 19.8554 20.4193 17.7081 21.6843C15.5608 22.9492 13.0542 23.4655 10.5818 23.1521C8.10936 22.8388 5.81089 21.7136 4.04698 19.9529C2.28499 18.1895 1.15854 15.8908 0.844484 13.4178C0.530427 10.9448 1.04655 8.43747 2.31181 6.28955C3.57708 4.14164 5.51984 2.47474 7.83507 1.55055C10.1503 0.626372 12.7069 0.497244 15.1035 1.18344C15.3888 1.26686 15.6296 1.45985 15.7731 1.72022C15.9166 1.9806 15.9512 2.2872 15.8693 2.57301C15.7875 2.85882 15.5958 3.10061 15.3362 3.24554C15.0766 3.39046 14.7702 3.42674 14.484 3.34644C13.1438 2.96162 11.7326 2.89342 10.3616 3.14724C8.9906 3.40107 7.69732 3.96996 6.58377 4.80905C5.47021 5.64814 4.56685 6.73448 3.94492 7.98239C3.32298 9.2303 2.9995 10.6056 2.99998 11.9999Z" fill="#6CBB2D"/>
</svg>
